<svg width="24" height="24" viewBox="0 0 24 24" fill="none" xmlns="http://www.w3.org/2000/svg">
<mask id="mask0_2368_2343" style="mask-type:alpha" maskUnits="userSpaceOnUse" x="0" y="0" width="24" height="24">
<rect width="24" height="24" fill="currentColor"/>
</mask>
<g mask="url(#mask0_2368_2343)">
<path d="M8.30767 16.5C7.80896 16.5 7.383 16.3233 7.0298 15.9701C6.67658 15.6169 6.49998 15.191 6.49998 14.6923V9.3077C6.49998 8.80898 6.67658 8.38302 7.0298 8.02982C7.383 7.67661 7.80896 7.5 8.30767 7.5H9.19228L10.1923 6.5H13.8076L14.8076 7.5H15.6922C16.1909 7.5 16.6169 7.67661 16.9701 8.02982C17.3233 8.38302 17.4999 8.80898 17.4999 9.3077V14.6923C17.4999 15.191 17.3233 15.6169 16.9701 15.9701C16.6169 16.3233 16.1909 16.5 15.6922 16.5H8.30767ZM8.30767 15H15.6922C15.782 15 15.8557 14.9711 15.9134 14.9134C15.9711 14.8557 15.9999 14.782 15.9999 14.6923V9.3077C15.9999 9.21795 15.9711 9.14423 15.9134 9.08652C15.8557 9.02882 15.782 8.99998 15.6922 8.99998H8.30767C8.21792 8.99998 8.1442 9.02882 8.0865 9.08652C8.0288 9.14423 7.99995 9.21795 7.99995 9.3077V14.6923C7.99995 14.782 8.0288 14.8557 8.0865 14.9134C8.1442 14.9711 8.21792 15 8.30767 15ZM11.9999 13.7115C12.473 13.7115 12.8765 13.5445 13.2105 13.2105C13.5445 12.8766 13.7115 12.473 13.7115 12C13.7115 11.5269 13.5445 11.1234 13.2105 10.7894C12.8765 10.4554 12.473 10.2885 11.9999 10.2885C11.5269 10.2885 11.1234 10.4554 10.7894 10.7894C10.4554 11.1234 10.2884 11.5269 10.2884 12C10.2884 12.473 10.4554 12.8766 10.7894 13.2105C11.1234 13.5445 11.5269 13.7115 11.9999 13.7115ZM9.2423 0.84615C9.69358 0.7141 10.1474 0.623401 10.6038 0.574051C11.0602 0.524684 11.5192 0.5 11.9807 0.5C13.4769 0.5 14.8919 0.766351 16.2259 1.29905C17.5599 1.83173 18.7435 2.56987 19.7768 3.51345C20.8102 4.45705 21.6557 5.56923 22.3134 6.85C22.9711 8.13075 23.3666 9.51408 23.4999 11H22C21.8769 9.76793 21.5458 8.61985 21.0067 7.55575C20.4676 6.49163 19.7762 5.56214 18.9326 4.76728C18.089 3.97241 17.1214 3.33298 16.0297 2.849C14.9381 2.36503 13.773 2.09228 12.5345 2.03075L14.2768 3.77308L13.2231 4.82688L9.2423 0.84615ZM14.7576 23.1538C14.3063 23.2859 13.8525 23.3766 13.3961 23.4259C12.9397 23.4753 12.4807 23.5 12.0192 23.5C10.523 23.5 9.10797 23.2336 7.774 22.7009C6.44003 22.1682 5.25638 21.4301 4.22305 20.4865C3.18972 19.5429 2.34421 18.4307 1.68652 17.15C1.02884 15.8692 0.633333 14.4859 0.5 13H1.99995C2.13328 14.232 2.46694 15.3801 3.00093 16.4442C3.53489 17.5083 4.22368 18.4378 5.06728 19.2327C5.91086 20.0275 6.87848 20.667 7.97015 21.151C9.06183 21.6349 10.2269 21.9077 11.4654 21.9692L9.72305 20.2269L10.7768 19.1731L14.7576 23.1538Z" fill="currentColor"/>
</g>
</svg>
