<svg width="40" height="40" viewBox="0 0 40 40" fill="none" xmlns="http://www.w3.org/2000/svg">
<path d="M33.3844 12.8656L24.6344 4.11563C24.5182 3.99958 24.3803 3.90756 24.2286 3.84483C24.0768 3.78209 23.9142 3.74987 23.75 3.75H8.75C8.08696 3.75 7.45107 4.01339 6.98223 4.48223C6.51339 4.95107 6.25 5.58696 6.25 6.25V33.75C6.25 34.413 6.51339 35.0489 6.98223 35.5178C7.45107 35.9866 8.08696 36.25 8.75 36.25H31.25C31.913 36.25 32.5489 35.9866 33.0178 35.5178C33.4866 35.0489 33.75 34.413 33.75 33.75V13.75C33.7501 13.5858 33.7179 13.4232 33.6552 13.2714C33.5924 13.1197 33.5004 12.9818 33.3844 12.8656ZM24.6344 23.3844C24.5183 23.5006 24.3804 23.5928 24.2287 23.6557C24.0769 23.7186 23.9143 23.751 23.75 23.751C23.5857 23.751 23.4231 23.7186 23.2713 23.6557C23.1196 23.5928 22.9817 23.5006 22.8656 23.3844L21.25 21.7672V28.75C21.25 29.0815 21.1183 29.3995 20.8839 29.6339C20.6495 29.8683 20.3315 30 20 30C19.6685 30 19.3505 29.8683 19.1161 29.6339C18.8817 29.3995 18.75 29.0815 18.75 28.75V21.7672L17.1344 23.3844C17.0182 23.5005 16.8804 23.5926 16.7286 23.6555C16.5769 23.7183 16.4142 23.7507 16.25 23.7507C16.0858 23.7507 15.9231 23.7183 15.7714 23.6555C15.6196 23.5926 15.4818 23.5005 15.3656 23.3844C15.2495 23.2682 15.1574 23.1304 15.0945 22.9786C15.0317 22.8269 14.9993 22.6642 14.9993 22.5C14.9993 22.3358 15.0317 22.1731 15.0945 22.0214C15.1574 21.8696 15.2495 21.7318 15.3656 21.6156L19.1156 17.8656C19.2317 17.7494 19.3696 17.6572 19.5213 17.5943C19.6731 17.5314 19.8357 17.499 20 17.499C20.1643 17.499 20.3269 17.5314 20.4787 17.5943C20.6304 17.6572 20.7683 17.7494 20.8844 17.8656L24.6344 21.6156C24.7506 21.7317 24.8428 21.8696 24.9057 22.0213C24.9686 22.1731 25.001 22.3357 25.001 22.5C25.001 22.6643 24.9686 22.8269 24.9057 22.9787C24.8428 23.1304 24.7506 23.2683 24.6344 23.3844ZM23.75 13.75V6.875L30.625 13.75H23.75Z" fill="currentColor"/>
</svg>
