<svg width="40" height="40" viewBox="0 0 40 40" fill="none" xmlns="http://www.w3.org/2000/svg">
<path d="M33.75 11.25H28.2687C28.3297 11.1984 28.3922 11.1484 28.4516 11.0937C28.9261 10.6721 29.3086 10.1572 29.575 9.581C29.8414 9.00485 29.9861 8.37992 30 7.7453C30.0205 7.05104 29.8989 6.35991 29.6427 5.71434C29.3865 5.06877 29.001 4.48238 28.5099 3.99118C28.0189 3.49998 27.4326 3.11432 26.7871 2.85789C26.1416 2.60146 25.4505 2.47967 24.7563 2.49998C24.1214 2.51366 23.4961 2.65824 22.9197 2.92468C22.3433 3.19112 21.828 3.57369 21.4062 4.04842C20.8226 4.72482 20.3482 5.48817 20 6.31092C19.6518 5.48817 19.1774 4.72482 18.5938 4.04842C18.172 3.57369 17.6567 3.19112 17.0803 2.92468C16.5039 2.65824 15.8786 2.51366 15.2437 2.49998C14.5495 2.47967 13.8584 2.60146 13.2129 2.85789C12.5674 3.11432 11.9811 3.49998 11.4901 3.99118C10.999 4.48238 10.6135 5.06877 10.3573 5.71434C10.1011 6.35991 9.97948 7.05104 10 7.7453C10.0139 8.37992 10.1586 9.00485 10.425 9.581C10.6914 10.1572 11.0739 10.6721 11.5484 11.0937C11.6078 11.1453 11.6703 11.1953 11.7313 11.25H6.25C5.58696 11.25 4.95107 11.5134 4.48223 11.9822C4.01339 12.4511 3.75 13.0869 3.75 13.75V18.75C3.75 19.413 4.01339 20.0489 4.48223 20.5177C4.95107 20.9866 5.58696 21.25 6.25 21.25V31.25C6.25 31.913 6.51339 32.5489 6.98223 33.0177C7.45107 33.4866 8.08696 33.75 8.75 33.75H18.125C18.2908 33.75 18.4497 33.6841 18.5669 33.5669C18.6842 33.4497 18.75 33.2907 18.75 33.125V18.75H6.25V13.75H18.75V18.75H21.25V13.75H33.75V18.75H21.25V33.125C21.25 33.2907 21.3158 33.4497 21.4331 33.5669C21.5503 33.6841 21.7092 33.75 21.875 33.75H31.25C31.913 33.75 32.5489 33.4866 33.0178 33.0177C33.4866 32.5489 33.75 31.913 33.75 31.25V21.25C34.413 21.25 35.0489 20.9866 35.5178 20.5177C35.9866 20.0489 36.25 19.413 36.25 18.75V13.75C36.25 13.0869 35.9866 12.4511 35.5178 11.9822C35.0489 11.5134 34.413 11.25 33.75 11.25ZM13.2047 9.21873C12.9861 9.02082 12.8108 8.77985 12.6898 8.51096C12.5688 8.24207 12.5047 7.95107 12.5016 7.65623C12.4937 7.31077 12.5548 6.9672 12.6814 6.64566C12.8079 6.32412 12.9974 6.03108 13.2387 5.78369C13.4799 5.53631 13.7682 5.33957 14.0864 5.205C14.4047 5.07043 14.7466 5.00073 15.0922 4.99998H15.1688C15.4636 5.00316 15.7546 5.06727 16.0235 5.18827C16.2924 5.30926 16.5333 5.48455 16.7313 5.70311C18.0422 7.18436 18.5047 9.64061 18.6672 11.1594C17.1422 10.9984 14.6875 10.5359 13.2047 9.21873ZM26.7984 9.21873C25.3156 10.5312 22.8547 10.9937 21.3297 11.1562C21.5156 9.51405 22.0312 7.10936 23.2812 5.70467C23.4792 5.48611 23.7201 5.31083 23.989 5.18983C24.2579 5.06883 24.5489 5.00473 24.8438 5.00155H24.9203C25.2659 5.00371 25.6076 5.07482 25.9253 5.21072C26.243 5.34662 26.5305 5.54457 26.7707 5.79298C27.011 6.04138 27.1992 6.33524 27.3245 6.65733C27.4497 6.97943 27.5094 7.32328 27.5 7.66873C27.4949 7.96157 27.4297 8.25025 27.3085 8.51687C27.1873 8.78349 27.0126 9.02238 26.7953 9.21873H26.7984Z" fill="#4B9CE3"/>
</svg>
