<svg width="75" height="20" viewBox="0 0 75 20" fill="none" xmlns="http://www.w3.org/2000/svg">
<g clip-path="url(#clip0_2322_1843)">
<path d="M30.1859 4.65405V15.3233H28.9356V6.42295L26.475 15.3233H23.3925L20.9287 6.42295V15.3233H19.6816V4.65405H21.6348L24.3243 14.1645H25.5432L28.2327 4.65405H30.1859Z" fill="currentColor"/>
<path d="M32.3193 4.65405H33.521V6.05712H32.3193V4.65405ZM32.3193 7.68691H33.521V15.3233H32.3193V7.68691Z" fill="currentColor"/>
<path d="M41.0627 9.7909V15.3232H39.861V10.1754C39.861 9.24545 39.4399 8.5598 38.4488 8.5598C37.4576 8.5598 36.7094 9.24216 36.7094 10.4054V15.3342H35.5034V7.68685H36.7094V8.63209C36.935 8.26743 37.2495 7.96791 37.6224 7.76243C37.9954 7.55696 38.4142 7.45246 38.8386 7.45903C40.0262 7.45903 41.0627 8.25093 41.0627 9.7909Z" fill="currentColor"/>
<path d="M43.4033 13.1283V8.78442H42.4121V7.68913H43.4184V5.78223H44.606V7.68694H46.2752V8.78223H44.6082V13.0955C44.6082 14.1163 45.0282 14.3452 45.7192 14.3452H46.3508V15.4405H45.703C44.457 15.4438 43.4033 15.17 43.4033 13.1283Z" fill="currentColor"/>
<path d="M53.3214 10.1261V12.8841C53.3214 14.4689 52.3151 15.5511 50.918 15.5511C50.0607 15.5511 49.3104 15.1699 48.9649 14.5916V15.3233H47.7632V4.65405H48.9649V8.41857C49.3104 7.84025 50.0607 7.45909 50.918 7.45909C52.3151 7.45909 53.3214 8.54343 53.3214 10.1261ZM52.1197 10.217C52.1197 9.10531 51.4589 8.55657 50.5423 8.55657C49.6256 8.55657 48.9649 9.10422 48.9649 10.217V12.7932C48.9649 13.9049 49.6256 14.4536 50.5423 14.4536C51.4589 14.4536 52.1197 13.906 52.1197 12.7932V10.217Z" fill="currentColor"/>
<path d="M60.5627 7.6868V15.3232H59.361V14.5915C59.0155 15.1698 58.2641 15.551 57.4079 15.551C56.0108 15.551 55.0034 14.4688 55.0034 12.884V10.126C55.0034 8.54113 56.0108 7.45898 57.4079 7.45898C58.2641 7.45898 59.0155 7.84015 59.361 8.41846V7.6868H60.5627ZM59.361 12.793V10.2169C59.361 9.10521 58.6992 8.55647 57.7836 8.55647C56.868 8.55647 56.2062 9.10411 56.2062 10.2169V12.793C56.2062 13.9048 56.8669 14.4535 57.7836 14.4535C58.7002 14.4535 59.361 13.9102 59.361 12.793Z" fill="currentColor"/>
<path d="M62.3203 12.8841V12.6409H63.522V12.9301C63.522 13.9355 64.1083 14.4536 65.189 14.4536C65.88 14.4536 66.6466 14.2411 66.6466 13.3879C66.6466 12.5796 66.0463 12.3507 64.8435 11.964C63.387 11.5073 62.425 11.0659 62.425 9.69348C62.425 7.97169 63.9431 7.45361 65.0994 7.45361C66.3767 7.45361 67.7587 8.11079 67.7587 9.86325V10.2137H66.557V9.89721C66.557 8.84573 65.7904 8.55657 65.0692 8.55657C64.2886 8.55657 63.657 8.89173 63.657 9.59272C63.657 10.3397 64.3933 10.5785 65.3844 10.8873C66.9619 11.3605 67.8785 11.9093 67.8785 13.3266C67.8785 15.0177 66.4663 15.5511 65.1448 15.5511C63.4464 15.5533 62.3203 14.6672 62.3203 12.8841Z" fill="currentColor"/>
<path d="M70.6426 11.8938V12.7317C70.6426 13.7679 71.2742 14.4535 72.22 14.4535C73.1971 14.4535 73.7974 13.9201 73.7974 12.884H75.0002C75.0002 14.6824 73.9486 15.551 72.22 15.551C70.553 15.551 69.4409 14.4842 69.4409 12.8686V10.1414C69.4409 8.5258 70.553 7.45898 72.22 7.45898C73.887 7.45898 75.0002 8.5258 75.0002 10.1414V11.8938H70.6426ZM70.6426 10.2783V10.953H73.7974V10.2783C73.7974 9.24212 73.1669 8.55647 72.22 8.55647C71.2731 8.55647 70.6426 9.24212 70.6426 10.2783Z" fill="currentColor"/>
<path d="M13.5112 7.65177H12.1444V2.32319C12.1458 1.79814 11.9725 1.28797 11.6524 0.875334C11.3324 0.462702 10.8844 0.171783 10.381 0.0497108C9.87758 -0.0723615 9.34831 -0.0184349 8.87891 0.202753C8.40951 0.423941 8.02747 0.799433 7.7947 1.26839C7.56194 1.73735 7.49207 2.2723 7.59643 2.78657C7.70078 3.30084 7.97325 3.7643 8.36967 4.10186C8.7661 4.43942 9.26327 4.63131 9.78062 4.64643C10.298 4.66155 10.8052 4.49902 11.2201 4.18518V7.65177H5.94698C5.33964 7.65177 4.75717 7.89653 4.32771 8.3322C3.89825 8.76786 3.65698 9.35876 3.65698 9.97488C3.65698 9.99241 3.65698 10.0088 3.65698 10.0253V15.3528H2.29011C1.83785 15.3526 1.39566 15.4882 1.01923 15.7425C0.642804 15.9968 0.348989 16.3584 0.1748 16.7818C0.000612063 17.2052 -0.0461562 17.6714 0.0403876 18.1217C0.126932 18.572 0.342916 18.9863 0.661129 19.3123C0.979343 19.6383 1.38555 19.8615 1.82857 19.9537C2.2716 20.046 2.73162 20.0031 3.15068 19.8306C3.56974 19.6581 3.92909 19.3636 4.18346 18.9842C4.43784 18.6049 4.57585 18.1576 4.58011 17.6989V16.2903H8.01889C7.71195 16.7098 7.55349 17.2221 7.56915 17.7442C7.5848 18.2664 7.77365 18.7679 8.10514 19.1677C8.43664 19.5675 8.89139 19.8421 9.39583 19.9472C9.90028 20.0522 10.4249 19.9816 10.8849 19.7466C11.3448 19.5117 11.7132 19.1262 11.9303 18.6525C12.1475 18.1789 12.2008 17.6447 12.0816 17.1365C11.9625 16.6283 11.6777 16.1757 11.2735 15.852C10.8693 15.5283 10.3693 15.3524 9.85435 15.3528H4.58119V11.8369C5.02186 12.1702 5.56611 12.3315 6.11438 12.2912C6.66264 12.2508 7.17826 12.0116 7.5669 11.6172C7.95553 11.2228 8.1912 10.6997 8.23078 10.1434C8.27036 9.58724 8.11121 9.03517 7.78244 8.58825H11.2201V9.99679C11.2244 10.4553 11.3623 10.9023 11.6165 11.2814C11.8707 11.6606 12.2299 11.9549 12.6487 12.1274C13.0675 12.2999 13.5272 12.3427 13.97 12.2507C14.4128 12.1586 14.8188 11.9356 15.1369 11.6098C15.455 11.2841 15.671 10.8701 15.7576 10.4201C15.8442 9.97007 15.7976 9.5041 15.6237 9.08088C15.4497 8.65766 15.1562 8.29613 14.7801 8.04182C14.404 7.78751 13.9621 7.65179 13.5101 7.65177H13.5112ZM9.85435 3.70873C9.58396 3.70895 9.31958 3.6278 9.09466 3.47557C8.86973 3.32334 8.69437 3.10685 8.59075 2.85349C8.48713 2.60014 8.45991 2.3213 8.51253 2.05224C8.56514 1.78319 8.69524 1.53601 8.88636 1.34198C9.07748 1.14794 9.32103 1.01577 9.58621 0.962178C9.85138 0.908586 10.1263 0.935982 10.3761 1.0409C10.6259 1.14582 10.8395 1.32355 10.9897 1.5516C11.1399 1.77966 11.2201 2.04779 11.2201 2.32209C11.2199 2.68967 11.0759 3.04215 10.8199 3.30227C10.5639 3.5624 10.2167 3.70895 9.85435 3.70982V3.70873ZM11.2201 17.6759C11.2201 17.9502 11.1399 18.2183 10.9897 18.4464C10.8395 18.6744 10.6259 18.8521 10.3761 18.9571C10.1263 19.062 9.85138 19.0894 9.58621 19.0358C9.32103 18.9822 9.07748 18.85 8.88636 18.656C8.69524 18.4619 8.56514 18.2148 8.51253 17.9457C8.45991 17.6767 8.48713 17.3978 8.59075 17.1445C8.69437 16.8911 8.86973 16.6746 9.09466 16.5224C9.31958 16.3702 9.58396 16.289 9.85435 16.2892C10.0338 16.2894 10.2116 16.3254 10.3773 16.3952C10.5431 16.465 10.6937 16.5673 10.8206 16.6961C10.9474 16.825 11.0479 16.9779 11.1165 17.1462C11.1851 17.3145 11.2203 17.4949 11.2201 17.677V17.6759ZM2.29011 19.0581C2.01972 19.0581 1.75541 18.9768 1.5306 18.8244C1.3058 18.6719 1.1306 18.4553 1.02718 18.2019C0.923753 17.9484 0.896747 17.6696 0.949576 17.4006C1.0024 17.1316 1.13269 16.8845 1.32396 16.6906C1.51523 16.4967 1.75889 16.3647 2.02411 16.3114C2.28932 16.258 2.56419 16.2856 2.81394 16.3907C3.06368 16.4958 3.27708 16.6737 3.42715 16.9019C3.57721 17.1301 3.6572 17.3983 3.65698 17.6726C3.6567 18.0402 3.51256 18.3926 3.25625 18.6524C2.99994 18.9122 2.65244 19.0581 2.29011 19.0581ZM5.94698 11.3571C5.67646 11.3571 5.41202 11.2757 5.18714 11.1231C4.96227 10.9706 4.78708 10.7538 4.68375 10.5001C4.58042 10.2465 4.55361 9.96747 4.6067 9.69837C4.65979 9.42927 4.7904 9.1822 4.982 8.98845C5.17359 8.7947 5.41755 8.66298 5.68298 8.60998C5.94841 8.55697 6.22338 8.58506 6.47306 8.69068C6.72275 8.7963 6.93593 8.97471 7.0856 9.20332C7.23528 9.43193 7.31471 9.70045 7.31386 9.97488C7.31357 10.3426 7.16947 10.6951 6.9132 10.9551C6.65692 11.215 6.30941 11.3612 5.94698 11.3615V11.3571ZM13.5112 11.3571C13.2408 11.3574 12.9765 11.2762 12.7515 11.124C12.5266 10.9717 12.3512 10.7553 12.2476 10.5019C12.144 10.2485 12.1168 9.96971 12.1694 9.70065C12.222 9.4316 12.3521 9.18442 12.5432 8.99039C12.7344 8.79636 12.9779 8.66418 13.2431 8.61059C13.5083 8.557 13.7831 8.58439 14.033 8.68931C14.2828 8.79423 14.4963 8.97196 14.6466 9.20001C14.7968 9.42807 14.877 9.6962 14.877 9.9705C14.8776 10.3387 14.7341 10.692 14.4779 10.9528C14.2218 11.2136 13.8741 11.3607 13.5112 11.3615V11.3571Z" fill="currentColor"/>
</g>
<defs>
<clipPath id="clip0_2322_1843">
<rect width="75" height="20" fill="currentColor"/>
</clipPath>
</defs>
</svg>
