<svg width="67" height="23" viewBox="0 0 67 23" fill="none" xmlns="http://www.w3.org/2000/svg">
<path d="M28.4598 6.39795C27.3832 6.39795 26.6003 6.6531 25.9352 7.24169L24.7607 8.26188C24.6628 8.34058 24.4669 8.3994 24.3302 8.28135C24.193 8.16372 24.1736 8.00673 24.2909 7.84975L24.9173 6.90784C25.0152 6.77033 24.9371 6.59388 24.7607 6.59388H23.2536C23.0776 6.59388 22.9404 6.73139 22.9404 6.90784V16.0916C22.9404 16.2681 23.0776 16.4056 23.2536 16.4056H24.8193C24.9953 16.4056 25.1325 16.2681 25.1325 16.0916V10.9111C25.1325 8.53691 27.1093 8.16412 27.853 8.16412C29.4381 8.16412 30.0058 9.30236 30.0058 10.1656V16.0916C30.0058 16.2681 30.1429 16.4056 30.3189 16.4056H31.8847C32.0607 16.4056 32.1978 16.2681 32.1978 16.0916V9.96924C32.1978 7.77146 30.7688 6.39795 28.4594 6.39795H28.4598Z" fill="currentColor"/>
<path d="M38.5776 6.35864C35.544 6.35864 33.6064 8.22298 33.6064 10.7542V12.1476C33.6064 14.8163 35.544 16.6413 38.5776 16.6413C41.2588 16.6413 43.1378 15.2479 43.3336 13.3641C43.3534 13.1678 43.2163 13.0307 43.0204 13.0307H41.4939C41.3568 13.0307 41.2394 13.1094 41.2002 13.2465C41.0044 13.8744 40.0847 14.8163 38.5776 14.8163C37.0705 14.8163 35.6614 13.7174 35.6808 12.1476L35.7006 10.4013C35.72 9.0866 37.0904 8.18404 38.5776 8.18404C39.9282 8.18404 41.2394 8.94949 41.3762 10.2054C41.3875 10.3506 41.288 10.4816 41.1452 10.5092L36.757 11.3631C36.581 11.4024 36.4438 11.5594 36.4438 11.7553V11.7748C36.4438 11.9513 36.6198 12.1082 36.8743 12.1082H43.1766C43.3498 12.1082 43.4898 11.9675 43.4898 11.7943V10.5583C43.4898 8.22339 41.4737 6.35905 38.5772 6.35905L38.5776 6.35864Z" fill="currentColor"/>
<path d="M49.4984 6.35856C47.0519 6.35856 44.9383 7.79089 44.9383 9.6747C44.9383 9.83168 45.0755 9.94932 45.2515 9.94932H46.8366C46.9932 9.94932 47.1105 9.83168 47.1304 9.6747C47.2869 8.81149 48.3243 8.18355 49.4398 8.18355C50.7705 8.18355 51.6711 9.00782 51.6711 10.4207V12.128C51.6711 13.8743 50.3792 14.7574 48.7742 14.7574C47.5216 14.7574 46.7974 14.2865 46.7974 13.521C46.7974 12.8537 47.1498 12.2846 48.5978 11.9512L50.692 11.3821C50.9072 11.3232 50.9857 11.1464 50.9465 10.9504C50.927 10.7935 50.751 10.7148 50.5941 10.7148H48.4218C46.5822 10.7148 44.7227 11.8919 44.7227 13.6188V13.8934C44.7227 15.6596 46.3863 16.5816 48.2847 16.5816C49.498 16.5816 50.5354 16.1106 51.1811 15.5614L52.1404 14.7371C52.297 14.5996 52.4535 14.5996 52.5903 14.7371C52.7076 14.8548 52.6684 15.0316 52.5705 15.1687L51.9834 16.0912C51.8855 16.2287 51.9636 16.4051 52.14 16.4051H53.5492C53.7252 16.4051 53.8623 16.2676 53.8623 16.0912V10.1452C53.8623 7.86918 52.2379 6.35815 49.4976 6.35815L49.4984 6.35856Z" fill="currentColor"/>
<path d="M62.3173 6.59424H60.1252C59.3622 6.59424 58.6181 7.06519 58.0897 7.51667L57.2288 8.26225C57.1308 8.34094 56.9544 8.39976 56.8371 8.30159C56.7 8.20343 56.6413 8.0071 56.759 7.85011L57.3853 6.90821C57.4832 6.77069 57.4052 6.59424 57.2288 6.59424H55.7609C55.5849 6.59424 55.4478 6.73175 55.4478 6.90821V16.092C55.4478 16.2684 55.5849 16.4059 55.7609 16.4059H57.3659C57.5419 16.4059 57.6791 16.2684 57.6791 16.092V11.3825C57.6791 9.36113 58.5012 8.45858 60.2822 8.45858H62.3177C62.4937 8.45858 62.6308 8.32106 62.6308 8.14461V6.90821C62.6308 6.73175 62.4937 6.59424 62.3177 6.59424H62.3173Z" fill="currentColor"/>
<path d="M17.058 4.38086C16.532 4.38086 16.0437 4.65426 15.7681 5.10372L12.7997 9.52239C12.703 9.66802 12.7422 9.86435 12.8874 9.9613C13.0052 10.04 13.161 10.0303 13.2682 9.93777L16.1901 7.39682C16.2387 7.35301 16.3135 7.35747 16.3572 7.40615C16.377 7.42846 16.3876 7.45726 16.3876 7.48687V15.4424C16.3876 15.5081 16.3346 15.5608 16.269 15.5608C16.2338 15.5608 16.2006 15.5454 16.1784 15.5182L7.34579 4.91793C7.05813 4.5776 6.63573 4.38127 6.19109 4.38086H5.88239C5.04691 4.38086 4.36963 5.05991 4.36963 5.89756V17.1023C4.36963 17.9399 5.04691 18.619 5.88239 18.619C6.40835 18.619 6.89669 18.3456 7.17222 17.8961L10.1407 13.4774C10.2374 13.3318 10.1981 13.1355 10.0529 13.0385C9.93516 12.9598 9.77939 12.9696 9.67218 13.062L6.75023 15.603C6.70168 15.6468 6.62683 15.6423 6.58314 15.5937C6.56331 15.5714 6.55279 15.5426 6.5532 15.5129V7.55543C6.5532 7.48971 6.6062 7.43698 6.67174 7.43698C6.70654 7.43698 6.74012 7.45239 6.76237 7.47957L15.5937 18.0819C15.8814 18.4222 16.3038 18.6185 16.7484 18.619H17.0571C17.8926 18.6194 18.5703 17.9407 18.5711 17.1031V5.89756C18.5711 5.05991 17.8938 4.38086 17.0584 4.38086H17.058Z" fill="currentColor"/>
</svg>
