<svg width="37" height="37" viewBox="0 0 37 37" fill="currentColor" xmlns="http://www.w3.org/2000/svg">
<mask id="mask0_2013_6480" style="mask-type:alpha" maskUnits="userSpaceOnUse" x="0" y="0" width="37" height="37">
<rect x="0.853027" y="0.853027" width="35.2941" height="35.2941" fill="currentColor"/>
</mask>
<g mask="url(#mask0_2013_6480)">
<path d="M18.4998 26.0225C20.1873 26.0225 21.6178 25.4357 22.7914 24.2621C23.965 23.0885 24.5518 21.658 24.5518 19.9706C24.5518 18.2832 23.965 16.8526 22.7914 15.679C21.6178 14.5054 20.1873 13.9186 18.4998 13.9186C16.8124 13.9186 15.3819 14.5054 14.2083 15.679C13.0347 16.8526 12.4479 18.2832 12.4479 19.9706C12.4479 21.658 13.0347 23.0885 14.2083 24.2621C15.3819 25.4357 16.8124 26.0225 18.4998 26.0225ZM18.4998 23.8167C17.4139 23.8167 16.5013 23.4472 15.7623 22.7081C15.0232 21.9691 14.6537 21.0565 14.6537 19.9706C14.6537 18.8846 15.0232 17.972 15.7623 17.233C16.5013 16.4939 17.4139 16.1244 18.4998 16.1244C19.5858 16.1244 20.4984 16.4939 21.2374 17.233C21.9765 17.972 22.346 18.8846 22.346 19.9706C22.346 21.0565 21.9765 21.9691 21.2374 22.7081C20.4984 23.4472 19.5858 23.8167 18.4998 23.8167ZM7.18768 30.9999C6.44484 30.9999 5.81606 30.7426 5.30136 30.2279C4.78665 29.7132 4.5293 29.0844 4.5293 28.3415V11.5996C4.5293 10.8567 4.78665 10.2279 5.30136 9.71324C5.81606 9.19853 6.44484 8.94118 7.18768 8.94118H11.6786L14.3992 6H22.6005L25.3211 8.94118H29.812C30.5549 8.94118 31.1836 9.19853 31.6983 9.71324C32.2131 10.2279 32.4704 10.8567 32.4704 11.5996V28.3415C32.4704 29.0844 32.2131 29.7132 31.6983 30.2279C31.1836 30.7426 30.5549 30.9999 29.812 30.9999H7.18768Z" fill="currentColor"/>
</g>
</svg>
